<svg width="18" height="18" viewBox="0 0 18 18" fill="none" xmlns="http://www.w3.org/2000/svg">
<path id="Vector" d="M9.00022 0C8.77241 0 8.54741 0.0562389 8.33367 0.1647L0.444797 4.23399C0.177616 4.37459 0.000432897 4.73613 0.000432897 5.14185C0.000432897 5.54757 0.177616 5.90911 0.444797 6.04971L2.0732 6.88928C1.61196 7.92568 1.3504 9.15089 1.3504 10.4404V11.5692C1.3504 12.71 1.04666 13.887 0.723228 14.815C0.54042 15.3372 0.3323 15.8514 0.0904307 16.3254C0.000432898 16.4981 -0.024879 16.7231 0.0257448 16.9279C0.0763686 17.1328 0.194491 17.2855 0.340737 17.3377L2.14069 17.9804C2.25882 18.0246 2.38538 17.9925 2.48944 17.9001C2.5935 17.8077 2.66662 17.655 2.68912 17.4823C2.93099 15.763 2.81005 14.2204 2.63006 13.1157C2.54006 12.5453 2.41912 11.9628 2.25038 11.4286V10.4404C2.25038 9.22721 2.53725 8.08234 3.03505 7.16645C3.39785 6.54381 3.86753 6.04167 4.41876 5.73236L8.83428 3.25383C9.0649 3.12528 9.32646 3.28596 9.41646 3.61536C9.50645 3.94476 9.39396 4.31835 9.16334 4.4469L4.74782 6.92543C4.39908 7.12226 4.09252 7.42355 3.84222 7.79312L8.33086 10.1069C8.5446 10.2154 8.7696 10.2716 8.9974 10.2716C9.22521 10.2716 9.45021 10.2154 9.66395 10.1069L17.5556 6.04971C17.8228 5.91313 18 5.54757 18 5.14185C18 4.73613 17.8228 4.37459 17.5556 4.23399L9.66676 0.1647C9.45302 0.0562389 9.22802 0 9.00022 0ZM3.60035 15.1042C3.60035 16.5222 6.01904 17.9965 9.00022 17.9965C11.9814 17.9965 14.4001 16.5222 14.4001 15.1042L13.9698 9.26336L9.97051 11.3281C9.65833 11.4888 9.32927 11.5692 9.00022 11.5692C8.67116 11.5692 8.3393 11.4888 8.02993 11.3281L4.03065 9.26336L3.60035 15.1042Z" fill="#222222"/>
</svg>
